<?xml version="1.0" encoding="UTF-8" standalone="no"?>
<svg
   data-name="Layer 1"
   width="748.77499"
   height="698.52814"
   viewBox="0 0 748.77499 698.52814"
   version="1.1"
   id="svg28"
   sodipodi:docname="tracking.svg"
   inkscape:version="1.3.2 (091e20e, 2023-11-25, custom)"
   xmlns:inkscape="http://www.inkscape.org/namespaces/inkscape"
   xmlns:sodipodi="http://sodipodi.sourceforge.net/DTD/sodipodi-0.dtd"
   xmlns="http://www.w3.org/2000/svg"
   xmlns:svg="http://www.w3.org/2000/svg">
  <defs
     id="defs28" />
  <sodipodi:namedview
     id="namedview28"
     pagecolor="#ffffff"
     bordercolor="#000000"
     borderopacity="0.25"
     inkscape:showpageshadow="2"
     inkscape:pageopacity="0.0"
     inkscape:pagecheckerboard="0"
     inkscape:deskcolor="#d1d1d1"
     inkscape:zoom="0.84120553"
     inkscape:cx="275.20028"
     inkscape:cy="326.3174"
     inkscape:window-width="1920"
     inkscape:window-height="1027"
     inkscape:window-x="-8"
     inkscape:window-y="-8"
     inkscape:window-maximized="1"
     inkscape:current-layer="svg28" />
  <path
     d="M276.62867,755.894c-3.59968,0-7.20676.1709-10.72935.51563l-.51267.0498c-23.36541,2.37793-40.45612,16.17285-39.75323,32.08985l.13588,2.87793c.08962,1.81933.18509,3.77539.26367,5.94531.04256,1.07031,1.31106,1.8916,2.88946,1.8916H803.65485c40.52146-.2832,80.89606-.63965,119.99558-1.05957a177.65239,177.65239,0,0,0,21.95373-1.30957c10.8659-1.48047,18.40761-4.415,23.05841-8.97168h.00149c5.78332-5.65039,5.96549-12.76563,5.61589-20.80469-.71246-16.23242-1.419-33.28515-2.12412-50.28613-.6228-14.9834-1.24275-29.92676-1.86263-44.2334-.38343-8.49023-1.23538-15.98437-7.80315-21.71191-7.11863-6.19434-20.10139-9.334-38.58832-9.334-.22331,0-.44508,0-.67131.001-57.9361.2373-115.34192,23.1709-142.84542,57.06735-3.16709,3.90332-6.11824,8.082-8.97247,12.124a158.91276,158.91276,0,0,1-13.78041,17.66406,66.94991,66.94991,0,0,1-9.1032,8.16894c-.22326.17774-.47886.36817-.7492.54883-.61846.46387-1.26475.91113-1.895,1.30957a62.04084,62.04084,0,0,1-11.60927,6.07617l-.40691.15723c-.30629.126-.63829.252-.97029.36719a68.21313,68.21313,0,0,1-7.17006,2.20605c-10.484,2.66016-22.40544,3.29785-35.43151,1.89356a151.75111,151.75111,0,0,1-35.22951-8.26465c-12.06241-4.38867-23.35293-9.86035-34.27175-15.15137-4.79617-2.32519-9.75686-4.72851-14.711-7.00586-.93131-.42871-1.8472-.84765-2.77709-1.2666-6.05068-2.71484-11.53652-4.957-16.77047-6.85449a146.27885,146.27885,0,0,0-39.96477-8.52149c-14.40915-.9082-27.10687.80469-37.73191,5.07911a60.65317,60.65317,0,0,0-8.53469,4.23339c-12.58467,7.52344-20.343,18.627-27.845,29.36524-9.33235,13.35644-18.98275,27.16894-38.0382,34.3291-21.98824,8.26953-54.08372,4.834-76.791-1.14063-7.13918-1.8789-14.26956-4.04-21.16565-6.13085q-4.17771-1.2671-8.36137-2.51661c-5.48072-1.6289-9.96621-2.877-14.116-3.93066l-1.31252-.33594c-.73008-.18261-1.46089-.36523-2.20492-.53906-4.92911-1.19141-9.51892-2.12891-14.03892-2.86621l-1.06942-.17969c-2.14395-.32519-4.14836-.5957-6.11527-.82324l-.78516-.08984A109.22627,109.22627,0,0,0,276.62867,755.894Z"
     transform="translate(-225.6125 -100.73593)"
     fill="#f2f2f2"
     id="path1" />
  <path
     id="a0461f35-fb70-484f-9ae8-3da4bdd92c77-707"
     data-name="Path 2996"
     d="M589.61585,444.97692a11.965,11.965,0,0,1-13.66732-12.23146l-39.67746-15.24782,17.96524-12.85089,34.92389,16.44968a12.02605,12.02605,0,0,1,.45444,23.8808Z"
     transform="translate(-225.6125 -100.73593)"
     fill="#ffb7b7" />
  <path
     id="b3dd0798-f166-43d4-ba9c-3d5fa2ca5126-708"
     data-name="Path 2997"
     d="M566.94276,434.03845l6.19525-21.85262-.30488-.20768-58.03-39.41986-50.16334-50.3332-29.221,11.67477,1.91872,9.2488.12537.11348,66.69478,59.73777.06171.03005Z"
     transform="translate(-225.6125 -100.73593)"
     fill="#3f3d56" />
  <polygon
     points="281.883 383.218 192.074 370.629 199.978 315.521 266.096 315.521 281.883 383.218"
     fill="#ffb6b6"
     id="polygon1" />
  <polygon
     points="129.283 653.061 147.706 657.342 172.986 588.321 145.796 582.003 129.283 653.061"
     fill="#ffb6b6"
     id="polygon2" />
  <path
     d="M337.75458,783.45716l13.21141,3.07013,5.25672-11.92522,3.14112,13.87675,35.04012,8.1428a8.08653,8.08653,0,0,0,7.81246-13.31837l-23.491-25.82786,2.93038-12.61-29.84035-5.0829Z"
     transform="translate(-225.6125 -100.73593)"
     fill="#2f2e41"
     id="path2" />
  <polygon
     points="242.956 663.327 261.87 663.327 270.87 590.376 242.956 590.376 242.956 663.327"
     fill="#ffb6b6"
     id="polygon3" />
  <path
     d="M458.586,796.83343h13.56345l2.421-12.80559,6.20064,12.80559h35.97381a8.08653,8.08653,0,0,0,4.595-14.74107l-28.72754-19.84023V749.30608L462.396,751.10957Z"
     transform="translate(-225.6125 -100.73593)"
     fill="#2f2e41"
     id="path3" />
  <path
     d="M416.55067,462.01366l87.829-6.98639c25.91752,60.54226,9.43786,157.19121-10.47959,265.98991l-28.24959,3.65262-2.19113-174.82717L392.6422,712.48408l-29.44266-1.50494Z"
     transform="translate(-225.6125 -100.73593)"
     fill="#2f2e41"
     id="path4" />
  <path
     id="a1ca5f83-7fa1-45b1-9d3b-bf096f25c0e5-709"
     data-name="Path 3002"
     d="M467.67465,302.58843V272.87462a39.81591,39.81591,0,1,0-79.63182,0c-7.01751,14.62337-2.62731,21.57582,0,29.71381a5.35494,5.35494,0,0,0,5.346,5.346H462.326A5.355,5.355,0,0,0,467.67465,302.58843Z"
     transform="translate(-225.6125 -100.73593)"
     fill="#2f2e41" />
  <circle
     id="b14fd05a-a043-4ff7-820e-83dd0ca664c7"
     data-name="Ellipse 572"
     cx="212.07207"
     cy="177.55852"
     r="29.19194"
     fill="#ffb7b7" />
  <path
     id="b50f9c05-1494-4f26-bcdb-96e0065c79e8-710"
     data-name="Path 3003"
     d="M477.09383,275.251A31.53147,31.53147,0,0,0,445.598,243.75517h-5.943A31.53145,31.53145,0,0,0,408.15909,275.251v.59451c4.451,3.04279,8.67623,3.4878,12.55939,0l4.28318-11.99431.85661,11.99424h6.49159l2.16389-6.05121.43282,6.05128c8.768,7.46722,25.34788,3.88883,42.14726,0Z"
     transform="translate(-225.6125 -100.73593)"
     fill="#2f2e41" />
  <path
     id="a0eb6ff4-2fce-4112-9df9-8b4ebb5a5fd4-711"
     data-name="Path 3004"
     d="M420.66246,432.36361l74.32524-2.82829,4.15461-48.62355c3.20384-8.8999,3.256-16.54728.154-22.713a22.73592,22.73592,0,0,0-12.55178-10.84866l-16.2634-19.6429a22.13645,22.13645,0,0,0-17.18371-8.01144l-42.25921.28893c-1.01828-.61223-7.19678-3.75241-19.38194,1.52746C378.44007,327.24,381.509,347.14,381.54206,347.33985l.03053.18712.14513.12729,28.1075,23.67534Z"
     transform="translate(-225.6125 -100.73593)"
     fill="#3f3d56" />
  <path
     d="M759.36754,346.87254c-47.96135,54.0506-192.26494,64.3603-286.19436,163.57574-31.49078-95.9007,13.12008-261.44454,57.57879-324.575a139.80867,139.80867,0,0,1,194.80742-33.80817C788.68983,196.52384,810.61593,289.11756,759.36754,346.87254Z"
     transform="translate(-225.6125 -100.73593)"
     fill="#6c63ff"
     id="path5"
     style="fill:#008000" />
  <circle
     id="b262ea8c-1946-46c9-a449-3a1996c39394"
     data-name="Ellipse 577"
     cx="417.54548"
     cy="148.68783"
     r="45.59621"
     fill="#fff" />
  <circle
     id="bcc29a3a-8123-4529-80aa-6f70df2823cf"
     data-name="Ellipse 577"
     cx="209.016"
     cy="429.50466"
     r="29.86454"
     fill="#6c63ff" />
  <path
     id="b815393f-9135-439a-a427-8535fc5e4357-712"
     data-name="Path 3011"
     d="M400.46338,528.0807a11.96491,11.96491,0,0,1,.63006-18.32932l-13.72535-40.229,21.38416,5.55481,9.74516,37.34849a12.02605,12.02605,0,0,1-18.03908,15.65625Z"
     transform="translate(-225.6125 -100.73593)"
     fill="#ffb7b7" />
  <path
     id="b887ab11-b08b-42e6-a61f-ab0e88099db2-713"
     data-name="Path 3012"
     d="M394.332,503.66711l20.74772-9.24608-6.97024-70.177,6.4916-70.76378-27.70134-14.9499-5.86922,7.40044v.168l-3.10961,89.48257.01655.06747Z"
     transform="translate(-225.6125 -100.73593)"
     fill="#3f3d56" />
  <path
     d="M889.03244,636.77521c-1.45,5.44-5.26,9.97-9.86005,13.27-.75.54-1.52,1.04-2.3,1.51-.24.14-.48.29-.73.42q-.405.24006-.81.45h-21.63c-.39-.79-.77-1.59-1.15-2.38-9.27-19.48-15.78-40.5-14.67-61.91a79.25448,79.25448,0,0,1,5.17-24.25c5.94-15.47,16.78-28.86,31.69-35.6.37-.17.76-.34,1.14-.5-.12.43-.24.85-.36,1.28a110.78514,110.78514,0,0,0-3.38,17.59c-.06.46-.11.92-.15,1.39a116.05441,116.05441,0,0,0,3.72,42.69c.01.03.02.07.03.1q1.27506,4.605,2.96,9.07c.88,2.35,1.83,4.67,2.87,6.95C885.91244,616.42524,891.73239,626.62525,889.03244,636.77521Z"
     transform="translate(-225.6125 -100.73593)"
     fill="#e6e6e6"
     id="path6" />
  <path
     d="M876.15243,528.23523c-.21.28-.42.55-.63.83a98.12838,98.12838,0,0,0-11.12,18.76c-.16.33-.31.66-.44,1a97.81342,97.81342,0,0,0-7.82,29.24,1.48989,1.48989,0,0,0-.02.21c-.25,2.36005-.4,4.74-.46,7.12a42.48041,42.48041,0,0,0,1.43,13.24,23.76868,23.76868,0,0,0,5.46,9.42c.25.27.5.54.77.8.2.21.42.42.63.62,2.02,1.93,4.23,3.72,6.13,5.79a21.43156,21.43156,0,0,1,2.35,3,14.90407,14.90407,0,0,1,1.6,12.1c-1.36005,5.06-4.47,9.33-7.65,13.4-1.59,2.04-3.23,4.1-4.65,6.28-.52.78-1,1.57-1.43994,2.38h-1.26c.42-.81.88-1.6,1.38-2.38,3.65-5.75,8.84-10.69,11.53-17.02,1.82-4.27,2.37-9.11.07-13.3a17.68149,17.68149,0,0,0-2.43-3.38c-1.83-2.07-4.02-3.84-6.01-5.71-.5-.47-.99-.95-1.46-1.45a24.9637,24.9637,0,0,1-5.63995-8.9,39.23028,39.23028,0,0,1-1.94-13.13c0-2.84.15-5.7.43-8.54.03-.36.07-.73.11-1.1a100.76637,100.76637,0,0,1,19.67-49.23c.2-.28.41-.55.62-.82C875.79245,526.90522,876.58243,527.68525,876.15243,528.23523Z"
     transform="translate(-225.6125 -100.73593)"
     fill="#fff"
     id="path7" />
  <path
     d="M855.47608,578.70991a14.807,14.807,0,0,1-12.3542-14.66278.55274.55274,0,0,1,1.10454-.02415,13.711,13.711,0,0,0,11.51987,13.616c.70147.11439.42724,1.18471-.27021,1.071Z"
     transform="translate(-225.6125 -100.73593)"
     fill="#fff"
     id="path8" />
  <path
     d="M862.27485,608.25633a28.53932,28.53932,0,0,0,11.53315-17.308c.15106-.69512,1.22185-.42407,1.071.27021a29.68509,29.68509,0,0,1-12.0379,17.98618c-.58485.4063-1.1479-.54427-.56622-.94836Z"
     transform="translate(-225.6125 -100.73593)"
     fill="#fff"
     id="path9" />
  <path
     d="M864.07156,547.70829a8.38145,8.38145,0,0,0,7.89345-.97169c.57941-.4135,1.14187.53755.56623.94836a9.39213,9.39213,0,0,1-8.72989,1.0943.57082.57082,0,0,1-.40038-.67059.55505.55505,0,0,1,.67059-.40038Z"
     transform="translate(-225.6125 -100.73593)"
     fill="#fff"
     id="path10" />
  <path
     d="M951.17239,566.90522c-.35.27-.71.54-1.06.82a110.36279,110.36279,0,0,0-13.29,12c-.32.33-.64.67-.95,1.01l-.01.01a116.34717,116.34717,0,0,0-22.66,36.14l-.03.09c-.01.03-.02.05-.03.08a114.44474,114.44474,0,0,0-5.03,16.42c-1.22,5.46-2.22,11.31-4.13,16.57-.29.81-.61,1.61-.95,2.38h-44.46c.15-.79.31-1.59.47-2.38a160.30092,160.30092,0,0,1,10.54-33.7c.16-.36.32-.72.5-1.08a108.30472,108.30472,0,0,1,8.61-15.35.0098.0098,0,0,1,.01-.01,94.95613,94.95613,0,0,1,5.8-7.69,79.119,79.119,0,0,1,18.72-16.24c.04-.03.09-.05.13-.08,14.04-8.71,30.68-12.86,46.59-9.27h.01C950.36239,566.71521,950.76242,566.80524,951.17239,566.90522Z"
     transform="translate(-225.6125 -100.73593)"
     fill="#e6e6e6"
     id="path11" />
  <path
     d="M951.1224,567.43525c-.34.09-.68.19-1.01.29a98.589,98.589,0,0,0-20.17,8.27c-.32.17-.64.35-.96.53a98.255,98.255,0,0,0-23.79,18.59.035.035,0,0,0-.01.02c-.08.07995-.17.17-.24.25-1.6,1.72-3.14,3.51-4.6,5.35a42.76886,42.76886,0,0,0-6.82,11.43,23.67361,23.67361,0,0,0-1.31,10.81c.03.37.08.73.13,1.1.04.29.07995.58.13.87994.66,4.01,1.8,8.03,1.48,12.12006a14.90906,14.90906,0,0,1-6.01,10.62994,23.79278,23.79278,0,0,1-3.68,2.34,36.85272,36.85272,0,0,1-5.77,2.38h-3.93c.53-.15,1.05-.3,1.58-.45a48.20918,48.20918,0,0,0,5.53-1.93,26.912,26.912,0,0,0,3-1.48c4.02-2.31,7.37006-5.85,8.07-10.58.61005-4.14-.57-8.28-1.27-12.33-.12-.7-.23-1.39-.29-2.08a24.43856,24.43856,0,0,1,.85-10.46,39.06233,39.06233,0,0,1,6.36-11.66,83.357,83.357,0,0,1,5.48-6.55q.36-.40494.75-.81a100.90127,100.90127,0,0,1,24.21-18.73h.01a99.28743,99.28743,0,0,1,21.1-8.74h.01c.33-.1.67-.2,1-.29C951.64242,566.15522,951.8024,567.24524,951.1224,567.43525Z"
     transform="translate(-225.6125 -100.73593)"
     fill="#fff"
     id="path12" />
  <path
     d="M904.2268,595.28471a14.807,14.807,0,0,1-1.03614-19.1455c.43212-.5642,1.32916.08079.89646.64573a13.711,13.711,0,0,0,1.00022,17.80734c.49121.51367-.37214,1.20316-.86054.69243Z"
     transform="translate(-225.6125 -100.73593)"
     fill="#fff"
     id="path13" />
  <path
     d="M891.86624,622.9692a28.53925,28.53925,0,0,0,19.62921-6.87575c.53913-.46406,1.2309.39705.69243.86055a29.68515,29.68515,0,0,1-20.44052,7.11332c-.71158-.02772-.58884-1.12569.11888-1.09812Z"
     transform="translate(-225.6125 -100.73593)"
     fill="#fff"
     id="path14" />
  <path
     d="M929.75493,575.70672a8.38146,8.38146,0,0,0,6.8875,3.97657c.71158.01868.58807,1.11668-.11888,1.09812a9.39212,9.39212,0,0,1-7.62917-4.38226.57083.57083,0,0,1,.08406-.77649.55506.55506,0,0,1,.77649.08406Z"
     transform="translate(-225.6125 -100.73593)"
     fill="#fff"
     id="path15" />
  <path
     d="M619.59217,780.51877c-1.45,5.44-5.26,9.97-9.86,13.27-.75.54-1.52,1.04-2.3,1.51-.24.14-.48.29-.73.42q-.405.24-.81.45h-21.63c-.39-.79-.77-1.59-1.15-2.38-9.27-19.48-15.78-40.5-14.67-61.91a79.25417,79.25417,0,0,1,5.17-24.25c5.94-15.47,16.78-28.86,31.69-35.6.37-.17.76-.34,1.14-.5-.12.43-.24.85-.36,1.28a110.78533,110.78533,0,0,0-3.38,17.59c-.06.46-.11.92-.15,1.39a116.05424,116.05424,0,0,0,3.72,42.69c.01.03.01995.07.03.1q1.27506,4.605,2.96,9.07c.88,2.35,1.83,4.67,2.87,6.95C616.47218,760.16879,622.29212,770.3688,619.59217,780.51877Z"
     transform="translate(-225.6125 -100.73593)"
     fill="#e6e6e6"
     id="path16" />
  <path
     d="M606.71217,671.97879c-.21.28-.42005.55-.63.83a98.12885,98.12885,0,0,0-11.12,18.76c-.16.33-.31.66-.44,1a97.8135,97.8135,0,0,0-7.82,29.24,1.49,1.49,0,0,0-.02.21c-.25,2.36-.4,4.74-.46,7.12a42.48011,42.48011,0,0,0,1.43,13.24,23.76873,23.76873,0,0,0,5.46,9.42c.25.27.5.54.77.8.2.21.42.42.63.62,2.02,1.93,4.23,3.72,6.13,5.79a21.43047,21.43047,0,0,1,2.35,3,14.904,14.904,0,0,1,1.6,12.1c-1.36,5.06-4.47,9.33-7.65,13.4-1.59,2.04-3.23,4.1-4.65,6.28-.51995.78-1,1.57-1.43994,2.38h-1.26c.42-.81.88-1.6,1.38-2.38,3.65-5.75,8.84-10.69,11.53-17.02,1.82-4.27,2.37-9.11.07-13.3a17.68156,17.68156,0,0,0-2.43-3.38c-1.83-2.07-4.02-3.84-6.01-5.71-.5-.47-.99-.95-1.46-1.45a24.96366,24.96366,0,0,1-5.63995-8.9,39.23013,39.23013,0,0,1-1.94-13.13c0-2.84.15-5.7.43-8.54.03-.36.07-.73.11-1.1a100.76651,100.76651,0,0,1,19.67-49.23c.2-.28.41-.55.62-.82C606.35218,670.64877,607.14216,671.4288,606.71217,671.97879Z"
     transform="translate(-225.6125 -100.73593)"
     fill="#fff"
     id="path17" />
  <path
     d="M586.03581,722.45347a14.807,14.807,0,0,1-12.3542-14.66279.55275.55275,0,0,1,1.10455-.02415,13.71094,13.71094,0,0,0,11.51986,13.616c.70147.1144.42725,1.18472-.27021,1.071Z"
     transform="translate(-225.6125 -100.73593)"
     fill="#fff"
     id="path18" />
  <path
     d="M592.83458,751.99989a28.5393,28.5393,0,0,0,11.53315-17.308c.15107-.69511,1.22186-.42407,1.071.27021a29.68514,29.68514,0,0,1-12.0379,17.98619c-.58485.40629-1.1479-.54428-.56622-.94836Z"
     transform="translate(-225.6125 -100.73593)"
     fill="#fff"
     id="path19" />
  <path
     d="M594.6313,691.45184a8.38146,8.38146,0,0,0,7.89345-.97168c.57941-.41351,1.14186.53755.56622.94836a9.39213,9.39213,0,0,1-8.72989,1.0943.57083.57083,0,0,1-.40038-.6706.55507.55507,0,0,1,.6706-.40038Z"
     transform="translate(-225.6125 -100.73593)"
     fill="#fff"
     id="path20" />
  <path
     d="M681.73213,710.64877c-.35.27-.71.54-1.06.82a110.362,110.362,0,0,0-13.29,12c-.32.33-.64.67-.95,1.01l-.01.01a116.34712,116.34712,0,0,0-22.66,36.14l-.03.09c-.01.03-.02.05-.03.08a114.44321,114.44321,0,0,0-5.03,16.42c-1.22,5.46-2.22,11.31-4.13,16.57-.29.81-.61,1.61-.94995,2.38h-44.46c.15-.79.31-1.59.47-2.38a160.30177,160.30177,0,0,1,10.54-33.7c.16-.36.32-.72.5-1.07995a108.30489,108.30489,0,0,1,8.61-15.35.0098.0098,0,0,1,.01-.01,94.95585,94.95585,0,0,1,5.8-7.69,79.11856,79.11856,0,0,1,18.72-16.24c.04-.03.09-.05.13-.08,14.04-8.71,30.68-12.86,46.59-9.27h.01C680.92213,710.45877,681.32215,710.54879,681.73213,710.64877Z"
     transform="translate(-225.6125 -100.73593)"
     fill="#e6e6e6"
     id="path21" />
  <path
     d="M681.68214,711.1788c-.34.09-.68.19-1.01.29a98.5888,98.5888,0,0,0-20.17,8.27c-.32.17-.64.35-.96.53a98.25516,98.25516,0,0,0-23.79,18.59.035.035,0,0,0-.01.02c-.08.08-.17.17-.24.25-1.6,1.72-3.14,3.51-4.6,5.35a42.769,42.769,0,0,0-6.82,11.43,23.67366,23.67366,0,0,0-1.31,10.81c.03.37.08.73.13,1.1.04.29.08.58.13.88.66,4.01,1.8,8.03,1.48,12.12a14.90913,14.90913,0,0,1-6.01,10.63,23.79484,23.79484,0,0,1-3.68,2.34,36.85132,36.85132,0,0,1-5.77,2.38h-3.93c.53-.15,1.05-.3,1.58-.45a48.21368,48.21368,0,0,0,5.53-1.93,26.91381,26.91381,0,0,0,3-1.48c4.02-2.31,7.37-5.85,8.07-10.58.61005-4.14-.57-8.28-1.26995-12.33-.12-.7-.23005-1.38995-.29-2.08a24.43857,24.43857,0,0,1,.85-10.46,39.06253,39.06253,0,0,1,6.36-11.66,83.355,83.355,0,0,1,5.48-6.55q.36-.40494.75-.81a100.901,100.901,0,0,1,24.21-18.73h.01a99.28782,99.28782,0,0,1,21.1-8.74h.01c.33-.1.67-.2,1-.29C682.20216,709.89877,682.36213,710.9888,681.68214,711.1788Z"
     transform="translate(-225.6125 -100.73593)"
     fill="#fff"
     id="path22" />
  <path
     d="M634.78653,739.02826a14.807,14.807,0,0,1-1.03613-19.1455c.43212-.56419,1.32915.08079.89646.64574a13.711,13.711,0,0,0,1.00022,17.80733c.49121.51367-.37215,1.20316-.86055.69243Z"
     transform="translate(-225.6125 -100.73593)"
     fill="#fff"
     id="path23" />
  <path
     d="M622.426,766.71275a28.53931,28.53931,0,0,0,19.62921-6.87574c.53912-.46406,1.2309.39705.69242.86055a29.68516,29.68516,0,0,1-20.44051,7.11331c-.71159-.02772-.58885-1.12569.11888-1.09812Z"
     transform="translate(-225.6125 -100.73593)"
     fill="#fff"
     id="path24" />
  <path
     d="M660.31466,719.45027a8.38149,8.38149,0,0,0,6.8875,3.97657c.71159.01869.58807,1.11669-.11888,1.09812a9.39215,9.39215,0,0,1-7.62917-4.38226.57083.57083,0,0,1,.08406-.77649.55507.55507,0,0,1,.77649.08406Z"
     transform="translate(-225.6125 -100.73593)"
     fill="#fff"
     id="path25" />
  <circle
     cx="442.06603"
     cy="395.49967"
     r="12"
     fill="#f2f2f2"
     id="circle25" />
  <circle
     cx="591.13746"
     cy="251.75776"
     r="12"
     fill="#f2f2f2"
     id="circle26" />
  <circle
     cx="179.14332"
     cy="12"
     r="12"
     fill="#f2f2f2"
     id="circle27" />
  <path
     id="f02c4e45-f306-4b42-b3ad-5ddd3016d7d2-714"
     data-name="Path 2960"
     d="M226.85951,798.08044h746.281a1.247,1.247,0,0,0,0-2.494h-746.281a1.247,1.247,0,1,0,0,2.494Z"
     transform="translate(-225.6125 -100.73593)"
     fill="#ccc" />
  <path
     d="M682.60763,227.59412a45.58953,45.58953,0,0,1-69.41687,57.28919,45.59535,45.59535,0,1,0,69.41687-57.28919Z"
     transform="translate(-225.6125 -100.73593)"
     fill="#231f20"
     opacity="0.2"
     id="path27"
     style="fill:#008000" />
  <path
     d="M738.58784,165.39744c37.4303,48.396,43.88647,117.94977,2.412,164.69007C694.66047,382.31,558.39027,393.70878,464.50758,483.90471a193.39088,193.39088,0,0,0,6.7514,27.75854C565.18836,412.4478,709.492,402.1381,757.45332,348.08751,804.41755,295.16063,789.92292,212.98326,738.58784,165.39744Z"
     transform="translate(-225.6125 -100.73593)"
     fill="#231f20"
     opacity="0.2"
     id="path28" />
  <path
     style="fill:#4caf50;stroke-width:0.840587;fill-opacity:1"
     d="m 240.86695,379.34832 c -0.85882,-2.62684 -2.22637,-16.68478 -2.99714,-30.80933 -0.85113,-15.59726 -0.0722,-41.24049 1.76498,-58.10234 6.12859,-56.25007 21.50212,-114.96041 42.45504,-162.13257 12.58227,-28.326981 23.49015,-45.252406 39.37135,-61.091336 20.27819,-20.22421 42.40382,-32.155828 71.09314,-38.338152 11.85406,-2.554459 39.97719,-2.813818 51.48454,-0.474803 30.84661,6.26996 55.0365,19.431006 76.28563,41.504876 11.52234,11.969562 18.86755,22.382886 25.99268,36.849935 6.287,12.76528 9.92944,23.02052 12.83802,36.14526 1.59607,7.20213 1.86356,10.93375 1.86796,26.05821 0.003,11.26009 -0.35841,18.86991 -0.99878,21.01468 l -1.00389,3.36235 0.41066,-3.78264 c 2.60807,-24.02324 0.52475,-43.62901 -6.91425,-65.06895 -4.69552,-13.53293 -13.69373,-30.206765 -22.42466,-41.553261 -4.4523,-5.786103 -15.73924,-17.978412 -16.20874,-17.508911 -0.18416,0.184155 2.11065,3.992497 5.09956,8.462983 28.02028,41.909499 32.163,95.369079 10.44735,134.817419 -12.0849,21.95326 -27.52862,35.48781 -57.74563,50.60704 -14.13402,7.07203 -21.56568,10.24698 -61.89841,26.44419 -44.36036,17.81467 -54.31041,22.13075 -76.91375,33.3633 -34.7806,17.28394 -61.30737,34.50186 -83.86221,54.43304 -4.79317,4.23561 -7.92537,6.46607 -8.14345,5.79901 z M 436.48112,205.97194 c 19.07286,-4.04171 33.19884,-19.52403 35.96602,-39.41935 1.61387,-11.6033 -1.85856,-23.80585 -9.60121,-33.73978 -2.16204,-2.77394 -5.1887,-6.93485 -6.7259,-9.24646 -16.13058,-24.256927 -50.634,-27.762865 -71.08743,-7.22329 -14.20784,14.26769 -17.44763,35.84158 -8.06401,53.69864 1.64585,3.13204 4.75616,7.5739 6.91179,9.87079 2.15564,2.29689 4.01264,4.66696 4.12666,5.26685 0.36,1.89398 6.28895,8.58398 10.75583,12.13643 10.49849,8.34936 24.26122,11.50785 37.71825,8.65617 z"
     id="path29" />
  <path
     style="fill:#008000;stroke-width:0.840587"
     d="m 419.45312,205.83596 c -4.57757,-0.88058 -10.72585,-3.15994 -14.98226,-5.55439 -4.36647,-2.45637 -14.19459,-11.25301 -13.42847,-12.01913 0.21158,-0.21159 2.4457,0.73158 4.96469,2.09592 6.38832,3.46006 13.33381,5.07991 21.73132,5.06824 7.98496,-0.0111 14.06008,-1.355 20.51785,-4.53884 11.53606,-5.68755 21.26508,-17.95155 24.08616,-30.36203 1.37081,-6.03045 1.14053,-18.19882 -0.44779,-23.66247 -0.74372,-2.55829 -1.16044,-4.84322 -0.92604,-5.07762 0.2344,-0.2344 1.96455,1.954 3.8448,4.8631 13.54983,20.96422 7.44424,48.99251 -13.60563,62.45795 -6.75698,4.32239 -14.11926,6.5711 -22.50817,6.87484 -3.92975,0.14228 -8.09066,0.0768 -9.24646,-0.14557 z"
     id="path30" />
  <path
     style="fill:#008000;stroke-width:0.840587"
     d="m 245.58752,401.66381 c -2.52108,-9.38926 -4.44754,-18.96196 -4.03327,-20.04152 1.31327,-3.42233 32.11251,-27.43845 48.51273,-37.82846 30.66245,-19.42554 57.99508,-32.52432 118.03821,-56.56816 51.56282,-20.64795 65.87465,-27.14829 82.73514,-37.57777 29.64743,-18.33915 47.63751,-46.2037 52.26085,-80.946 1.59681,-11.99931 0.59367,-33.12537 -2.14005,-45.06946 -3.89537,-17.01948 -9.09767,-30.091967 -17.55858,-44.121694 -2.62377,-4.35069 -4.64695,-8.033883 -4.49596,-8.184874 0.34366,-0.343666 6.56001,6.908763 11.63434,13.573456 12.51006,16.430862 22.16837,38.025862 26.88046,60.102002 2.51615,11.78809 2.75368,36.77497 0.45817,48.19867 -4.59925,22.88854 -14.43636,41.49019 -30.33271,57.35814 -16.92052,16.8903 -32.44569,25.03533 -97.06626,50.92433 -53.19056,21.30978 -75.47707,31.32131 -99.62824,44.75494 -17.59759,9.78833 -43.5015,26.62088 -48.52201,31.52996 -0.75235,0.73566 -2.42563,2.09408 -3.71839,3.01873 -5.60214,4.00691 -18.58236,15.27567 -20.11319,17.46123 -0.70345,1.00433 -1.27901,1.47003 -1.27901,1.03489 0,-0.43514 -2.21927,1.40494 -4.9317,4.08907 l -4.93169,4.88024 z"
     id="path31" />
  <path
     style="fill:#00ff00;stroke-width:0.0525367"
     d="m 246.83853,240.28979 c 0.0155,-0.0506 0.21946,-1.0376 0.45331,-2.19341 3.67063,-18.14247 8.41625,-36.83812 13.90245,-54.76952 1.26627,-4.13875 3.43888,-10.91874 4.30557,-13.43626 l 0.34817,-1.01134 h 0.23028 c 0.12666,0 0.23029,0.0153 0.23029,0.0341 0,0.0187 -0.35259,1.10032 -0.78353,2.40355 -6.07878,18.38309 -11.14605,36.80958 -15.49647,56.35099 -0.77056,3.46119 -2.04556,9.49195 -2.52688,11.9521 -0.16138,0.82486 -0.12589,0.76178 -0.42864,0.76178 -0.22587,0 -0.25874,-0.0129 -0.23455,-0.0919 z"
     id="path32" />
  <path
     style="fill:#4caf50;stroke-width:0.297193;fill-opacity:1"
     d="m 206.40021,459.13386 c -7.93588,-1.10012 -13.89122,-3.98817 -18.7369,-9.08651 -4.85963,-5.113 -7.42977,-10.76617 -8.2865,-18.22661 l -0.17065,-1.48596 h 3.49248 c 3.28494,0 3.60732,-0.0544 5.42508,-0.91589 2.47571,-1.17328 4.59681,-3.29438 5.77009,-5.77009 0.85043,-1.79446 0.91589,-2.16628 0.91589,-5.20172 0,-3.07606 -0.0574,-3.39035 -0.97215,-5.32195 -0.53468,-1.12905 -1.28984,-3.30391 -1.67812,-4.83302 l -0.70597,-2.7802 2.38613,-1.46844 c 2.84181,-1.74887 6.34504,-3.06922 9.93748,-3.74541 3.5204,-0.66263 9.37553,-0.45279 12.72769,0.45613 2.97534,0.80675 7.36975,2.86572 9.76322,4.57449 2.08001,1.48498 5.84123,5.31465 7.29528,7.42804 1.45073,2.10857 3.4676,6.55293 4.2007,9.25667 0.91064,3.35851 1.11883,9.20686 0.45357,12.74136 -2.5783,13.69827 -14.0154,23.71012 -27.82483,24.35737 -1.7055,0.0799 -3.50212,0.0897 -3.99249,0.0217 z"
     id="path33" />
</svg>
